<?xml version="1.0" encoding="UTF-8"?>
<svg id="Header" xmlns="http://www.w3.org/2000/svg" viewBox="0 0 189 100">
  <defs>
    <style>
      .cls-1 {
        fill: white;
      }
    </style>
  </defs>
  <g>
    <path class="cls-1" d="M4.61.03l4.27,12.16c.4.88,1.37.85,1.72-.05L14.81.27l.15-.24h4.56v18.87s-.14.15-.15.15h-2.99v-10.44c0-.77-1.19-.87-1.43-.05l-3.82,10.4c-.16.2-2.41.1-2.81.04l-3.89-10.6c-.21-.53-1.3-.38-1.3.12v10.39s-.14.15-.15.15H0V.03h4.61Z"/>
    <path class="cls-1" d="M86.23.03l6.14,11.27c.38.75,1.81.41,1.81-.34V.03h3.04v19.02h-3.97l-6.29-11.27c-.25-.76-1.71-.43-1.71.14v10.98s-.14.15-.15.15h-2.99V.03h4.12Z"/>
    <path class="cls-1" d="M40.12,19.05h-2.99l-1.93-5.08-7.98-.02-2.01,5.11h-3.04C24.42,12.69,26.9,6.38,29.33.08c.15-.09,3.03-.1,3.39-.05.11.01.22,0,.29.1l7.11,18.92ZM34.24,11.5c-.65-1.53-1.05-3.47-1.78-4.94-.63-1.27-1.8-1.28-2.56-.13l-1.84,5.07h6.18Z"/>
    <path class="cls-1" d="M44.73.03v12.99c0,1.47,1.36,3.19,2.77,3.61,3.47,1.02,5.93-1.08,5.96-4.59V.03h3.04v12.51c-.32,4.98-3.36,7.09-8.19,6.81-4.57-.26-6.47-2.93-6.72-7.3V.03h3.14Z"/>
    <path class="cls-1" d="M62.98.03v14.17c0,.39.45,1.32.74,1.62.43.44,1.46.79,2.06.79h6.43v2.45h-12.26V.03h3.04Z"/>
    <rect class="cls-1" x="101.43" y=".03" width="3.14" height="19.02"/>
    <rect class="cls-1" x="74.85" y=".03" width="3.04" height="19.02"/>
  </g>
  <g>
    <path class="cls-1" d="M112.12,26.7l3.16,11.2c.64,1.51,2.09,1.43,2.6-.1l3.32-11.11c.5.09,3.13-.14,3.33.1l3.39,11.31c.53,1.15,1.95,1.16,2.43,0l3.25-11.41h3.34l-5.88,18.98c-.15.1-3.13.09-3.49.05-.11-.01-.22,0-.29-.1l-4.41-14.71-4.61,14.81-3.67-.02-5.9-19.01h3.43Z"/>
    <path class="cls-1" d="M68.47,26.7h3.14v19.02h-4.12c-1.99-3.83-4.12-7.6-6.24-11.37-.43-.68-1.71-.25-1.71.44v10.93h-2.99s-.15-.14-.15-.15v-18.87h4.07l6.19,11.17c.32.47.94.73,1.45.39.06-.04.35-.4.35-.43v-11.13Z"/>
    <path class="cls-1" d="M14.81,32.19h-3.24c.13-3-3.23-3.71-5.59-3.19-2.55.56-3.58,3.2-.98,4.52,3.38,1.72,9.84,1.21,10.21,6.36.41,5.71-5.96,6.96-10.37,5.85C1.86,44.98-.04,42.78,0,39.64h3.24c-.1,3.43,3.53,4.32,6.3,3.7s3.62-3.46,1.12-4.89c-3.64-2.09-11.13-1.07-10.24-7.66.73-5.41,10.67-5.83,13.36-2.03.72,1.03.88,2.22,1.04,3.43Z"/>
    <path class="cls-1" d="M40.42,26.7v7.94h5.93c.5,0,1.53-.39,1.91-.73s.88-1.29.88-1.77v-5.44h3.14v18.87s-.14.15-.15.15h-2.99v-8.53h-5.84c-1.1,0-2.35.77-2.67,1.84-.07.23-.22.95-.22,1.15v5.54h-3.04v-19.02h3.04Z"/>
    <path class="cls-1" d="M89.07,26.7v2.55h-7.9c-.46,0-1.56.6-1.87.98-.72.88-.67,2.76.15,3.58.27.27,1.36.73,1.72.73h7.21v2.3s-.14.15-.15.15h-9.37v6.18h10.01v2.55h-13s-.15-.14-.15-.15v-18.87h13.34Z"/>
    <path class="cls-1" d="M94.86,26.7v12.4c0,.6.36,1.85.65,2.39,1.47,2.75,6.07,2.75,7.51-.02.14-.27.57-1.54.57-1.78v-12.99h3.14v11.82c-.27,5.27-2.82,7.79-8.2,7.5-4.22-.23-6.37-2.56-6.72-6.72v-12.6h3.04Z"/>
    <path class="cls-1" d="M34.14,32.88h-3.04c-.13-1.94-1.73-3.63-3.68-3.82-8.65-.83-8.76,13.23-1.74,14.29,2.5.38,5.03-.76,5.52-3.4h3.04c-.76,5.77-7.74,7.56-12.33,4.92-5.73-3.29-6-13.35-.5-17,4.61-3.06,12.44-1.22,12.73,5.02Z"/>
    <path class="cls-1" d="M162.94,26.7h3.43l-6.23,11.27c-.11.25-.34.89-.34,1.13v6.62h-3.04v-7.01l-6.57-12.01h3.38l3.79,7.09c.5.79,1.54.79,1.93-.1l3.65-6.99Z"/>
    <path class="cls-1" d="M142.73,26.7v14.17c0,.39.45,1.32.74,1.62.43.44,1.46.79,2.06.79h6.43v2.45h-12.26v-19.02h3.04Z"/>
  </g>
  <g>
    <path class="cls-1" d="M76.71,53.37l4.17,11.86c.3,1.06,1.44,1.31,1.86.2l4.27-12.06h4.61v19.02h-3.14v-10.64s-.27-.38-.29-.39c-.41-.25-.92.08-1.1.47l-3.87,10.57-2.78-.02-3.8-10.47c-.17-.46-.72-.66-1.15-.41-.02.01-.26.33-.26.35v10.54h-3.14v-19.02h4.61Z"/>
    <path class="cls-1" d="M100.45,53.37c1.28,4.02,2.8,7.97,4.17,11.96.39.96,1.22,1.2,1.76.2,1.42-4.05,2.96-8.07,4.27-12.16h4.61v19.02h-3.04v-10.34c0-.93-1.24-.98-1.49-.12l-3.82,10.44h-2.71l-3.82-10.45c-.31-.8-1.49-.66-1.49.22v10.25h-3.04v-19.02h4.61Z"/>
    <path class="cls-1" d="M45.96,53.37c4.87.49,6.09,6.45,2.53,9.3l-1.31.8c.85-.06,1.71.56,2.08,1.31.71,1.45,1.16,4.54,1.68,6.26.14.47.37.88.46,1.35h-3.29l-.15-.25-1.62-6.62c-.1-.52-.86-1.18-1.37-1.18h-6.03v8.04h-3.04v-19.02h10.05ZM41.87,55.85c-3.9.47-4.04,5.62.17,5.96,2.69.21,5.87-.27,5.33-3.75-.37-2.39-3.63-2.42-5.49-2.2Z"/>
    <path class="cls-1" d="M180.15,53.03c6.6-.02,9.62,5.5,8.87,11.55-.7,5.58-4.87,8.93-10.52,8.09-9.95-1.48-10.09-19.6,1.65-19.64ZM179.79,55.65c-7.41.5-6.95,13.9-.13,14.48,8.13.7,8.56-15.04.13-14.48Z"/>
    <path class="cls-1" d="M14.81,58.86h-3.24c.13-3-3.23-3.71-5.59-3.19-2.55.56-3.58,3.2-.98,4.52,3.38,1.72,9.84,1.21,10.21,6.36.41,5.71-5.96,6.96-10.37,5.85C1.86,71.65-.04,69.45,0,66.31h3.24c-.1,3.43,3.53,4.32,6.3,3.7s3.62-3.46,1.12-4.89c-3.64-2.09-11.13-1.07-10.24-7.66.73-5.41,10.67-5.83,13.36-2.03.72,1.03.88,2.22,1.04,3.43Z"/>
    <path class="cls-1" d="M140.08,53.37v2.55h-7.9c-.46,0-1.56.6-1.87.98-.72.88-.67,2.76.15,3.58.27.27,1.36.73,1.72.73h7.21v2.3s-.14.15-.15.15h-9.37v6.18h10.01v2.55h-13s-.15-.14-.15-.15v-18.87h13.34Z"/>
    <path class="cls-1" d="M56.9,53.37v12.4c0,.6.36,1.85.65,2.39,1.47,2.75,6.07,2.75,7.51-.02.14-.27.57-1.54.57-1.78v-12.99h3.14v11.82c-.27,5.27-2.82,7.79-8.2,7.5-4.22-.23-6.37-2.56-6.72-6.72v-12.6h3.04Z"/>
    <path class="cls-1" d="M33.55,53.37v2.55h-7.21s-.15.14-.15.15v16.32h-3.04v-14.56c0-.34-.5-1.14-.78-1.37-.25-.21-1.03-.54-1.33-.54h-5.15v-2.55h17.66Z"/>
    <path class="cls-1" d="M146.36,53.37v14.17c0,.39.45,1.32.74,1.62.43.44,1.46.79,2.06.79h6.43v2.45h-12.26v-19.02h3.04Z"/>
    <path class="cls-1" d="M161.27,53.37v14.17c0,.39.45,1.32.74,1.62.43.44,1.46.79,2.06.79h6.43v2.45h-12.26v-19.02h3.04Z"/>
    <rect class="cls-1" x="119.48" y="53.37" width="3.14" height="19.02"/>
  </g>
  <g>
    <path class="cls-1" d="M0,99.06l7.3-19.03,3.57.02,7.17,19.01h-3.14l-1.86-5.05H5s-2.01,5.05-2.01,5.05H0ZM12.16,91.51l-1.91-5.1c-.62-1.1-1.93-1.03-2.49.07l-1.88,5.03h6.28Z"/>
    <path class="cls-1" d="M97.6,92.78h-9.52c-.04,1.92,1.08,4.15,3.19,4.31,1.57.12,2.97-.81,3.09-2.45h3.14c-.47,3.91-4.2,5.4-7.75,4.56-7.04-1.67-6.66-14.65,2.6-13.87,3.72.31,5.72,4.01,5.25,7.45ZM94.47,90.92c0-2.35-1.97-3.87-4.24-3.02-.8.3-1.77,1.22-1.6,2.14.06.32.48.88.79.88h5.05Z"/>
    <path class="cls-1" d="M74.45,99.06h-2.94c-.11-.35-.09-1.37-.33-1.58-.46-.39-1.06.54-1.39.79-3.05,2.38-8.59.89-7.46-3.73.84-3.42,6.01-3.5,8.78-4.22.68-3.26-4.73-3.96-5.69-1.42-.16.42-.11.9-.34,1.23h-2.65c-.06,0-.12-.13-.13-.22-.03-.85.48-2.07,1.01-2.72,2.21-2.72,8.34-2.58,10.17.52,1.24,2.1.5,6.86.67,9.43.04.64.22,1.27.3,1.91ZM71.22,92.2c-1.2.28-2.54.56-3.7.95s-2.18.93-2.26,2.26c-.08,1.4,1.11,2.08,2.39,1.98,2.44-.18,3.65-3.05,3.58-5.2Z"/>
    <path class="cls-1" d="M37.94,85.36c5.18-.59,7.92,3.08,7.58,7.97-.3,4.44-4.16,7.06-8.44,5.88-6.62-1.83-5.85-13.08.86-13.85ZM38.93,87.61c-4.6.18-4.53,10.05.56,9.49,4.13-.45,4-9.66-.56-9.49Z"/>
    <path class="cls-1" d="M108.54,89.55c-.23-.4-.22-.9-.59-1.28-1.08-1.1-5.07-1-4.91.99.08.94.83,1.17,1.6,1.44,2.64.92,7,.93,6.98,4.69-.02,4.27-5.61,4.49-8.65,3.75-2.08-.51-3.44-2-3.51-4.19h3.04c.17,2.05,2.4,2.3,4.07,2.16s2.9-1.88,1.3-2.96c-2.49-1.67-8.31-.4-7.82-5.32.47-4.66,10.19-4.67,11.06-.37.04.18.15,1.1-.03,1.1h-2.55Z"/>
    <path class="cls-1" d="M60.13,90.14h-3.04c-.2-2.62-3.15-3.23-4.95-1.66-2.12,1.84-1.93,7.21.83,8.38,1.77.75,3.99-.16,4.12-2.2h3.04c-.2,2.52-2.17,4.27-4.59,4.68-6.27,1.08-9.8-5.44-7.1-10.63,2.55-4.91,11.2-4.6,11.69,1.44Z"/>
    <path class="cls-1" d="M20.99,85.63l2.43,7.32c.48,1.08,1.62,1.14,2.16.07,1.02-2,1.42-5,2.39-7.03.06-.13.1-.27.22-.37h3.14s.19.14.11.2l-5.43,13.3c-.76,1.21-2.42,1.16-3.05-.13l-5.36-13.17c-.09-.06.09-.2.1-.2h3.29Z"/>
    <path class="cls-1" d="M80.63,79.74v4.07c0,.19.26.81.37,1,.25.4.71.71,1.17.79.25.04,1.3-.05,1.3.17v2.06s-.14.15-.15.15h-2.7v6.91c0,.13.19.85.26,1.02.52,1.31,1.99,1.15,3.08.7v2.21c0,.27-2,.64-2.31.64-5.79,0-3.32-7.04-4.02-10.3-.17-.82-.93-1.23-1.72-1.17v-2.35c2.28.14,1.65-2.02,1.82-3.53.86-.7,1.71-1.54,2.6-2.21.1-.07.12-.19.29-.15Z"/>
  </g>
</svg>
